<svg class="metabar-name v-mid" xmlns="http://www.w3.org/2000/svg" viewBox="0 0 250 40" role="link">
    <title>Connor Bär</title>
    <path d="M28.68,11.55A15,15,0,0,0,21.1,9.39c-5.18,0-8.54,3.5-8.54,9.17s3.17,9.31,8.59,9.31a14.44,14.44,0,0,0,7.92-2.45l1.58,6.77a22.56,22.56,0,0,1-9.84,2.16c-9.6,0-15.94-5.52-15.94-15.6C4.87,9.06,11.16,2.91,21,2.91A23.12,23.12,0,0,1,31,5.17Z"/><path d="M45,34.36c-6.72,0-11.86-4.22-11.86-11.81s5.38-12,12.15-12S57.1,14.91,57.1,22.4,51.67,34.36,45,34.36Zm.1-18.15c-3,0-4.61,2.45-4.61,6.29s1.63,6.19,4.66,6.19,4.61-2.4,4.61-6.24S48.12,16.21,45.1,16.21Z"/><path d="M75.77,33.64V20.44c0-2.69-1.2-3.55-3.17-3.55a6.21,6.21,0,0,0-4,1.68V33.64H61.18V11.7l7.39-.91v3.65a10.19,10.19,0,0,1,7.49-3.84c4.46,0,7.1,2.93,7.1,7.68V33.64Z"/><path d="M102.89,33.64V20.44c0-2.69-1.2-3.55-3.17-3.55a6.21,6.21,0,0,0-4,1.68V33.64H88.3V11.7l7.39-.91v3.65a10.19,10.19,0,0,1,7.49-3.84c4.46,0,7.1,2.93,7.1,7.68V33.64Z"/><path d="M126.07,34.36c-6.72,0-11.86-4.22-11.86-11.81s5.38-12,12.15-12,11.81,4.32,11.81,11.81S132.74,34.36,126.07,34.36Zm.1-18.15c-3,0-4.61,2.45-4.61,6.29s1.63,6.19,4.66,6.19,4.61-2.4,4.61-6.24S129.19,16.21,126.17,16.21Z"/><path d="M149.64,33.64h-7.39V11.7l7.39-.91v3.26c1.3-2.26,3-3.46,5.38-3.46a8.08,8.08,0,0,1,3.7.91L157.22,18a6.27,6.27,0,0,0-2.78-.67c-1.82,0-3.46.91-4.8,3.26Z"/><path
        d="M198.17,24.9c0,4.8-2.54,8.74-12.15,8.74H172.92v-30h13c8.93,0,11.33,3.41,11.33,7.82,0,3.41-2.11,5.52-5.57,6.48C195.53,18.66,198.17,21.2,198.17,24.9Zm-13-15.55h-4.9v6.91h4.51c3.17,0,4.8-1.3,4.8-3.55S188.09,9.35,185.21,9.35Zm0,11.67h-4.9v6.91h5.14c3.46,0,5-1.1,5-3.46C190.49,21.92,188.42,21,185.21,21Z"/><path
        d="M201,22.74c0-7.39,5.18-12.1,11.18-12.1a15.3,15.3,0,0,1,5.38,1.06l6.62-.91V27c0,1.54.34,1.68,1.82,1.82l-.72,5.28c-4.85.62-7.25-.77-8.3-3.12-1.73,2-3.65,3.36-6.43,3.36C205.08,34.31,201,29.8,201,22.74Zm7.54-14.31a3.49,3.49,0,0,1-3.84-3.7,3.84,3.84,0,0,1,7.68,0A3.49,3.49,0,0,1,208.58,8.43Zm4.85,7.68c-3.12,0-5,2.54-5,6.24s1.92,6.1,4.66,6.1a5,5,0,0,0,3.74-1.58V17.07A6,6,0,0,0,213.43,16.11Zm6.34-7.68A3.46,3.46,0,0,1,216,4.74a3.79,3.79,0,0,1,7.58,0A3.43,3.43,0,0,1,219.77,8.43Z"/><path d="M236.95,33.64h-7.39V11.7l7.39-.91v3.26c1.3-2.26,3-3.46,5.38-3.46a8.08,8.08,0,0,1,3.7.91L244.53,18a6.27,6.27,0,0,0-2.78-.67c-1.82,0-3.46.91-4.8,3.26Z"/>
</svg>
